<svg xmlns="http://www.w3.org/2000/svg" viewBox="0 0 24 24" id="Shopping-Shipping-Bag-2--Streamline-Pixel" height="24" width="24"><desc>Shopping Shipping Bag 2 Streamline Icon: https://streamlinehq.com</desc><title>shopping-shipping-bag-2</title><g><path d="m22.8525 4.574999999999999 -2.2800000000000002 0 0 1.1400000000000001 -1.1475 0 0 -1.1400000000000001 -1.1400000000000001 0 0 2.2874999999999996 -4.574999999999999 0 0 -1.1475 3.4275 0 0 -1.1400000000000001 -2.2800000000000002 0 0 -1.1475 3.4275 0 0 -1.1400000000000001 -2.2874999999999996 0 0 -1.1400000000000001 -1.1400000000000001 0 0 1.1400000000000001 -1.1475 0 0 1.1400000000000001 -1.1400000000000001 0 0 3.435 -1.1400000000000001 0 0 -2.2874999999999996 -1.1475 0 0 2.2874999999999996 -2.2874999999999996 0 0 -1.1475 -1.1400000000000001 0 0 1.1475 -2.2874999999999996 0 0 -1.1475 -1.1400000000000001 0 0 1.1475 -1.1475 0 0 -4.574999999999999 -1.1400000000000001 0 0 4.574999999999999 -1.1400000000000001 0 0 10.2825 1.1400000000000001 0 0 -9.1425 15.997499999999999 0 0 8.0025 1.1475 0 0 6.855 -16.005 0 0 1.1400000000000001 17.145 0 0 -1.1400000000000001 1.1475 0 0 -1.1400000000000001 1.1400000000000001 0 0 -1.1475 1.1400000000000001 0 0 -1.1400000000000001 1.1475 0 0 -5.715 -1.1475 0 0 -9.1425z" fill="#000000" stroke-width="0.75"></path><path d="M19.424999999999997 2.2874999999999996h1.1475V4.574999999999999H19.424999999999997Z" fill="#000000" stroke-width="0.75"></path><path d="M18.285 1.1475h1.1400000000000001v1.1400000000000001h-1.1400000000000001Z" fill="#000000" stroke-width="0.75"></path><path d="M15.997499999999999 0h2.2874999999999996v1.1475h-2.2874999999999996Z" fill="#000000" stroke-width="0.75"></path><path d="M11.43 10.290000000000001h1.1400000000000001v2.2800000000000002h-1.1400000000000001Z" fill="#000000" stroke-width="0.75"></path><path d="M11.43 2.2874999999999996h1.1400000000000001v1.1400000000000001h-1.1400000000000001Z" fill="#000000" stroke-width="0.75"></path><path d="M9.1425 3.4275h1.1400000000000001V4.574999999999999h-1.1400000000000001Z" fill="#000000" stroke-width="0.75"></path><path d="M7.995 4.574999999999999h1.1475v1.1400000000000001h-1.1475Z" fill="#000000" stroke-width="0.75"></path><path d="M6.855 12.57h4.574999999999999v1.1475h-4.574999999999999Z" fill="#000000" stroke-width="0.75"></path><path d="m9.1425 3.4275 0 -1.1400000000000001 2.2874999999999996 0 0 -1.1400000000000001 -3.435 0 0 1.1400000000000001 -1.1400000000000001 0 0 1.1400000000000001 2.2874999999999996 0z" fill="#000000" stroke-width="0.75"></path><path d="M5.715 10.290000000000001h1.1400000000000001v2.2800000000000002H5.715Z" fill="#000000" stroke-width="0.75"></path><path d="M5.715 3.4275h1.1400000000000001V4.574999999999999H5.715Z" fill="#000000" stroke-width="0.75"></path><path d="M4.5675 4.574999999999999h1.1475v1.1400000000000001H4.5675Z" fill="#000000" stroke-width="0.75"></path><path d="M3.4275 3.4275h1.1400000000000001V4.574999999999999H3.4275Z" fill="#000000" stroke-width="0.75"></path><path d="M2.2800000000000002 1.1475h4.574999999999999v1.1400000000000001h-4.574999999999999Z" fill="#000000" stroke-width="0.75"></path><path d="M1.1400000000000001 17.145h1.1400000000000001v5.715H1.1400000000000001Z" fill="#000000" stroke-width="0.75"></path></g></svg>