<svg xmlns="http://www.w3.org/2000/svg" viewBox="0 0 24 24" id="Real-Estate-Building-House--Streamline-Pixel" height="24" width="24"><desc>Real Estate Building House Streamline Icon: https://streamlinehq.com</desc><title>real-estate-building-house</title><g><path d="M22.86 13.7175h-1.1475v-1.1400000000000001h-1.1400000000000001v-1.1475h-1.1400000000000001V0H8.0025v6.862500000000001H6.855V4.574999999999999H4.574999999999999V1.1475H3.4275V4.574999999999999H1.1400000000000001v2.2874999999999996H0V24h22.86v-6.855H24v-2.2874999999999996h-1.1400000000000001ZM2.2874999999999996 5.715h3.4275v1.1475H2.2874999999999996Zm5.715 9.1425H6.855v2.2874999999999996h1.1475v5.715H1.1400000000000001V8.0025h6.862500000000001Zm1.1400000000000001 -13.71h9.1425V9.149999999999999h-1.1400000000000001v-1.1475h-1.1475V6.862500000000001h-1.1400000000000001v1.1400000000000001h-1.1400000000000001v1.1475h-1.1475v1.1400000000000001h-1.1400000000000001v1.1400000000000001h-1.1400000000000001v1.1475h-1.1475Zm12.57 21.7125h-3.4275v-4.5675h-1.1400000000000001v4.5675h-3.4275v-1.1400000000000001h1.1400000000000001v-1.1475h-1.1400000000000001v-2.2800000000000002h-1.1475v4.5675h-3.4275V14.857499999999998h1.1475v-1.1400000000000001h1.1400000000000001v-1.1400000000000001h1.1400000000000001v-1.1475h1.1475v-1.1400000000000001h1.1400000000000001V9.149999999999999h1.1400000000000001v1.1400000000000001h1.1475v1.1400000000000001h1.1400000000000001v1.1475h1.1475v1.1400000000000001h1.1400000000000001v1.1400000000000001h1.1400000000000001Z" fill="#000000" stroke-width="0.75"></path><path d="M11.43 14.857499999999998h8.0025v1.1475H11.43Z" fill="#000000" stroke-width="0.75"></path><path d="M13.7175 17.145h3.4275v1.1475h-3.4275Z" fill="#000000" stroke-width="0.75"></path><path d="M14.857499999999998 2.2874999999999996h2.2874999999999996V4.574999999999999h-2.2874999999999996Z" fill="#000000" stroke-width="0.75"></path><path d="M10.290000000000001 5.715h2.2800000000000002v2.2874999999999996h-2.2800000000000002Z" fill="#000000" stroke-width="0.75"></path><path d="M10.290000000000001 2.2874999999999996h2.2800000000000002V4.574999999999999h-2.2800000000000002Z" fill="#000000" stroke-width="0.75"></path><path d="M3.4275 19.4325h2.2874999999999996v2.2874999999999996H3.4275Z" fill="#000000" stroke-width="0.75"></path><path d="M3.4275 14.857499999999998h2.2874999999999996v2.2874999999999996H3.4275Z" fill="#000000" stroke-width="0.75"></path><path d="M3.4275 10.290000000000001h2.2874999999999996v2.2874999999999996H3.4275Z" fill="#000000" stroke-width="0.75"></path></g></svg>