<svg xmlns="http://www.w3.org/2000/svg" viewBox="0 0 24 24" id="Transportation-Truck--Streamline-Pixel" height="24" width="24"><desc>Transportation Truck Streamline Icon: https://streamlinehq.com</desc><title>transportation-truck</title><g><path d="m22.8525 9.1425 -1.1400000000000001 0 0 -1.1475 -1.1400000000000001 0 0 -1.1400000000000001 -1.1475 0 0 2.2874999999999996 -1.1400000000000001 0 0 1.1400000000000001 -1.1400000000000001 0 0 -3.4275 2.2800000000000002 0 0 -1.1400000000000001 -5.715 0 0 -1.1475 -1.1400000000000001 0 0 8.0025 -11.43 0 0 -8.0025 -1.1400000000000001 0 0 12.57 1.1400000000000001 0 0 -3.4275 11.43 0 0 3.4275 -4.574999999999999 0 0 -1.1400000000000001 -1.1400000000000001 0 0 3.4275 1.1400000000000001 0 0 -1.1400000000000001 6.862500000000001 0 0 1.1400000000000001 1.1400000000000001 0 0 -3.4275 -1.1400000000000001 0 0 1.1400000000000001 -1.1475 0 0 -10.2825 2.2874999999999996 0 0 4.574999999999999 1.1475 0 0 1.1400000000000001 5.7075000000000005 0 0 4.5675 1.1475 0 0 -6.855 -1.1475 0 0 -1.1400000000000001z" fill="#000000" stroke-width="0.75"></path><path d="m20.572499999999998 15.997499999999999 -1.1475 0 0 3.4275 1.1475 0 0 -1.1400000000000001 2.2800000000000002 0 0 -1.1475 -2.2800000000000002 0 0 -1.1400000000000001z" fill="#000000" stroke-width="0.75"></path><path d="M15.997499999999999 19.424999999999997h3.4275v1.1475h-3.4275Z" fill="#000000" stroke-width="0.75"></path><path d="M17.145 17.137500000000003h1.1400000000000001v1.1475h-1.1400000000000001Z" fill="#000000" stroke-width="0.75"></path><path d="M15.997499999999999 14.857499999999998h3.4275v1.1400000000000001h-3.4275Z" fill="#000000" stroke-width="0.75"></path><path d="M3.4275 14.857499999999998h3.4275v1.1400000000000001H3.4275Z" fill="#000000" stroke-width="0.75"></path><path d="M3.4275 19.424999999999997h3.4275v1.1475H3.4275Z" fill="#000000" stroke-width="0.75"></path><path d="M4.5675 17.137500000000003h1.1475v1.1475H4.5675Z" fill="#000000" stroke-width="0.75"></path><path d="M2.2874999999999996 9.1425h9.1425v1.1400000000000001H2.2874999999999996Z" fill="#000000" stroke-width="0.75"></path><path d="M2.2874999999999996 6.855h9.1425v1.1400000000000001H2.2874999999999996Z" fill="#000000" stroke-width="0.75"></path><path d="m3.4275 15.997499999999999 -1.1400000000000001 0 0 1.1400000000000001 -1.1475 0 0 1.1475 1.1475 0 0 1.1400000000000001 1.1400000000000001 0 0 -3.4275z" fill="#000000" stroke-width="0.75"></path><path d="M1.1400000000000001 3.4275h11.43v1.1400000000000001H1.1400000000000001Z" fill="#000000" stroke-width="0.75"></path></g></svg>